<mxfile host="app.diagrams.net" modified="2022-06-30T19:04:09.108Z" agent="5.0 (Windows)" etag="0_231RxTt3shg8kwSEfo" version="20.0.3" type="github">
  <diagram id="2Jx3fAtqAdPRRu3jmr1K" name="Page-1">
    <mxGraphModel dx="1038" dy="564" grid="1" gridSize="10" guides="1" tooltips="1" connect="1" arrows="1" fold="1" page="1" pageScale="1" pageWidth="1169" pageHeight="1654" math="0" shadow="0">
      <root>
        <mxCell id="0" />
        <mxCell id="1" parent="0" />
        <mxCell id="EI_LwdPaL2pC1cd1ccbz-3" value="" style="edgeStyle=orthogonalEdgeStyle;rounded=0;orthogonalLoop=1;jettySize=auto;html=1;" parent="1" source="EI_LwdPaL2pC1cd1ccbz-1" target="EI_LwdPaL2pC1cd1ccbz-2" edge="1">
          <mxGeometry relative="1" as="geometry" />
        </mxCell>
        <mxCell id="EI_LwdPaL2pC1cd1ccbz-1" value="Digite o nome do participante" style="shape=display;whiteSpace=wrap;html=1;" parent="1" vertex="1">
          <mxGeometry x="504" y="300" width="136" height="70" as="geometry" />
        </mxCell>
        <mxCell id="EI_LwdPaL2pC1cd1ccbz-6" value="" style="edgeStyle=orthogonalEdgeStyle;rounded=0;orthogonalLoop=1;jettySize=auto;html=1;" parent="1" source="EI_LwdPaL2pC1cd1ccbz-2" target="EI_LwdPaL2pC1cd1ccbz-4" edge="1">
          <mxGeometry relative="1" as="geometry" />
        </mxCell>
        <mxCell id="EI_LwdPaL2pC1cd1ccbz-2" value="nome" style="html=1;strokeWidth=2;shape=manualInput;whiteSpace=wrap;rounded=1;size=26;arcSize=11;" parent="1" vertex="1">
          <mxGeometry x="522" y="400" width="100" height="60" as="geometry" />
        </mxCell>
        <mxCell id="EI_LwdPaL2pC1cd1ccbz-8" value="" style="edgeStyle=orthogonalEdgeStyle;rounded=0;orthogonalLoop=1;jettySize=auto;html=1;" parent="1" source="EI_LwdPaL2pC1cd1ccbz-4" target="EI_LwdPaL2pC1cd1ccbz-7" edge="1">
          <mxGeometry relative="1" as="geometry" />
        </mxCell>
        <mxCell id="EI_LwdPaL2pC1cd1ccbz-4" value="Digite a idade do participante" style="shape=display;whiteSpace=wrap;html=1;" parent="1" vertex="1">
          <mxGeometry x="504" y="490" width="136" height="70" as="geometry" />
        </mxCell>
        <mxCell id="EI_LwdPaL2pC1cd1ccbz-10" value="" style="edgeStyle=orthogonalEdgeStyle;rounded=0;orthogonalLoop=1;jettySize=auto;html=1;" parent="1" source="EI_LwdPaL2pC1cd1ccbz-7" target="EI_LwdPaL2pC1cd1ccbz-9" edge="1">
          <mxGeometry relative="1" as="geometry" />
        </mxCell>
        <mxCell id="EI_LwdPaL2pC1cd1ccbz-7" value="idade" style="html=1;strokeWidth=2;shape=manualInput;whiteSpace=wrap;rounded=1;size=26;arcSize=11;" parent="1" vertex="1">
          <mxGeometry x="522" y="600" width="100" height="60" as="geometry" />
        </mxCell>
        <mxCell id="EI_LwdPaL2pC1cd1ccbz-12" value="" style="edgeStyle=orthogonalEdgeStyle;rounded=0;orthogonalLoop=1;jettySize=auto;html=1;entryX=1;entryY=0.5;entryDx=0;entryDy=0;entryPerimeter=0;" parent="1" source="EI_LwdPaL2pC1cd1ccbz-9" target="EI_LwdPaL2pC1cd1ccbz-20" edge="1">
          <mxGeometry relative="1" as="geometry">
            <mxPoint x="480" y="660" as="targetPoint" />
            <Array as="points">
              <mxPoint x="490" y="735" />
              <mxPoint x="490" y="630" />
            </Array>
          </mxGeometry>
        </mxCell>
        <mxCell id="EI_LwdPaL2pC1cd1ccbz-14" value="" style="edgeStyle=orthogonalEdgeStyle;rounded=0;orthogonalLoop=1;jettySize=auto;html=1;" parent="1" source="EI_LwdPaL2pC1cd1ccbz-9" target="EI_LwdPaL2pC1cd1ccbz-13" edge="1">
          <mxGeometry relative="1" as="geometry" />
        </mxCell>
        <mxCell id="EI_LwdPaL2pC1cd1ccbz-9" value="idade &amp;gt; 18" style="strokeWidth=2;html=1;shape=mxgraph.flowchart.decision;whiteSpace=wrap;" parent="1" vertex="1">
          <mxGeometry x="522" y="685" width="100" height="100" as="geometry" />
        </mxCell>
        <mxCell id="EI_LwdPaL2pC1cd1ccbz-29" value="" style="edgeStyle=orthogonalEdgeStyle;rounded=0;orthogonalLoop=1;jettySize=auto;html=1;" parent="1" source="EI_LwdPaL2pC1cd1ccbz-11" target="EI_LwdPaL2pC1cd1ccbz-28" edge="1">
          <mxGeometry relative="1" as="geometry" />
        </mxCell>
        <mxCell id="EI_LwdPaL2pC1cd1ccbz-11" value="Cadastro permitido" style="shape=display;whiteSpace=wrap;html=1;" parent="1" vertex="1">
          <mxGeometry x="190" y="660" width="136" height="70" as="geometry" />
        </mxCell>
        <mxCell id="EI_LwdPaL2pC1cd1ccbz-13" value="Cadastro não permitido" style="shape=display;whiteSpace=wrap;html=1;" parent="1" vertex="1">
          <mxGeometry x="670" y="700" width="136" height="70" as="geometry" />
        </mxCell>
        <mxCell id="EI_LwdPaL2pC1cd1ccbz-16" value="S" style="text;html=1;resizable=0;autosize=1;align=center;verticalAlign=middle;points=[];fillColor=none;strokeColor=none;rounded=0;" parent="1" vertex="1">
          <mxGeometry x="487" y="700" width="30" height="30" as="geometry" />
        </mxCell>
        <mxCell id="EI_LwdPaL2pC1cd1ccbz-17" value="N" style="text;html=1;resizable=0;autosize=1;align=center;verticalAlign=middle;points=[];fillColor=none;strokeColor=none;rounded=0;" parent="1" vertex="1">
          <mxGeometry x="630" y="700" width="30" height="30" as="geometry" />
        </mxCell>
        <mxCell id="EI_LwdPaL2pC1cd1ccbz-31" value="" style="edgeStyle=orthogonalEdgeStyle;rounded=0;orthogonalLoop=1;jettySize=auto;html=1;" parent="1" source="EI_LwdPaL2pC1cd1ccbz-18" target="EI_LwdPaL2pC1cd1ccbz-19" edge="1">
          <mxGeometry relative="1" as="geometry" />
        </mxCell>
        <mxCell id="EI_LwdPaL2pC1cd1ccbz-18" value="inicio" style="strokeWidth=2;html=1;shape=mxgraph.flowchart.start_2;whiteSpace=wrap;" parent="1" vertex="1">
          <mxGeometry x="547" y="20" width="50" height="50" as="geometry" />
        </mxCell>
        <mxCell id="EI_LwdPaL2pC1cd1ccbz-32" value="" style="edgeStyle=orthogonalEdgeStyle;rounded=0;orthogonalLoop=1;jettySize=auto;html=1;" parent="1" source="EI_LwdPaL2pC1cd1ccbz-19" edge="1">
          <mxGeometry relative="1" as="geometry">
            <mxPoint x="572" y="210" as="targetPoint" />
          </mxGeometry>
        </mxCell>
        <mxCell id="EI_LwdPaL2pC1cd1ccbz-19" value="&lt;div&gt;lista = [ ] opção = &#39;s&#39;&lt;br&gt;&lt;/div&gt;" style="rounded=1;whiteSpace=wrap;html=1;absoluteArcSize=1;arcSize=14;strokeWidth=2;" parent="1" vertex="1">
          <mxGeometry x="517" y="110" width="110" height="50" as="geometry" />
        </mxCell>
        <mxCell id="EI_LwdPaL2pC1cd1ccbz-23" value="" style="edgeStyle=orthogonalEdgeStyle;rounded=0;orthogonalLoop=1;jettySize=auto;html=1;entryX=0.662;entryY=0;entryDx=0;entryDy=0;entryPerimeter=0;" parent="1" source="EI_LwdPaL2pC1cd1ccbz-20" target="EI_LwdPaL2pC1cd1ccbz-11" edge="1">
          <mxGeometry relative="1" as="geometry" />
        </mxCell>
        <mxCell id="EI_LwdPaL2pC1cd1ccbz-42" style="edgeStyle=orthogonalEdgeStyle;rounded=0;orthogonalLoop=1;jettySize=auto;html=1;" parent="1" source="EI_LwdPaL2pC1cd1ccbz-20" edge="1">
          <mxGeometry relative="1" as="geometry">
            <mxPoint x="420" y="520" as="targetPoint" />
          </mxGeometry>
        </mxCell>
        <mxCell id="EI_LwdPaL2pC1cd1ccbz-20" value="lista.length &amp;lt;100" style="strokeWidth=2;html=1;shape=mxgraph.flowchart.decision;whiteSpace=wrap;" parent="1" vertex="1">
          <mxGeometry x="370" y="580" width="100" height="100" as="geometry" />
        </mxCell>
        <mxCell id="EI_LwdPaL2pC1cd1ccbz-22" value="S" style="text;html=1;resizable=0;autosize=1;align=center;verticalAlign=middle;points=[];fillColor=none;strokeColor=none;rounded=0;" parent="1" vertex="1">
          <mxGeometry x="350" y="590" width="30" height="30" as="geometry" />
        </mxCell>
        <mxCell id="EI_LwdPaL2pC1cd1ccbz-43" style="edgeStyle=orthogonalEdgeStyle;rounded=0;orthogonalLoop=1;jettySize=auto;html=1;" parent="1" source="EI_LwdPaL2pC1cd1ccbz-24" edge="1">
          <mxGeometry relative="1" as="geometry">
            <mxPoint x="870" y="200" as="targetPoint" />
            <Array as="points">
              <mxPoint x="750" y="475" />
              <mxPoint x="750" y="120" />
              <mxPoint x="870" y="120" />
            </Array>
          </mxGeometry>
        </mxCell>
        <mxCell id="EI_LwdPaL2pC1cd1ccbz-24" value="Cadastro não permitido, lista cheia" style="shape=display;whiteSpace=wrap;html=1;" parent="1" vertex="1">
          <mxGeometry x="337" y="440" width="150" height="70" as="geometry" />
        </mxCell>
        <mxCell id="EI_LwdPaL2pC1cd1ccbz-27" value="N" style="text;html=1;resizable=0;autosize=1;align=center;verticalAlign=middle;points=[];fillColor=none;strokeColor=none;rounded=0;" parent="1" vertex="1">
          <mxGeometry x="430" y="510" width="30" height="30" as="geometry" />
        </mxCell>
        <mxCell id="EI_LwdPaL2pC1cd1ccbz-35" style="edgeStyle=orthogonalEdgeStyle;rounded=0;orthogonalLoop=1;jettySize=auto;html=1;" parent="1" source="EI_LwdPaL2pC1cd1ccbz-28" edge="1">
          <mxGeometry relative="1" as="geometry">
            <mxPoint x="480" y="875" as="targetPoint" />
          </mxGeometry>
        </mxCell>
        <mxCell id="EI_LwdPaL2pC1cd1ccbz-28" value="lista = [nome]" style="rounded=1;whiteSpace=wrap;html=1;absoluteArcSize=1;arcSize=14;strokeWidth=2;" parent="1" vertex="1">
          <mxGeometry x="208" y="850" width="100" height="50" as="geometry" />
        </mxCell>
        <mxCell id="EI_LwdPaL2pC1cd1ccbz-40" style="edgeStyle=orthogonalEdgeStyle;rounded=0;orthogonalLoop=1;jettySize=auto;html=1;entryX=0;entryY=0.75;entryDx=0;entryDy=0;" parent="1" source="EI_LwdPaL2pC1cd1ccbz-33" target="EI_LwdPaL2pC1cd1ccbz-36" edge="1">
          <mxGeometry relative="1" as="geometry">
            <mxPoint x="180" y="1008" as="targetPoint" />
            <Array as="points">
              <mxPoint x="180" y="240" />
              <mxPoint x="180" y="975" />
            </Array>
          </mxGeometry>
        </mxCell>
        <mxCell id="EI_LwdPaL2pC1cd1ccbz-45" style="edgeStyle=orthogonalEdgeStyle;rounded=0;orthogonalLoop=1;jettySize=auto;html=1;" parent="1" source="EI_LwdPaL2pC1cd1ccbz-33" edge="1">
          <mxGeometry relative="1" as="geometry">
            <mxPoint x="820" y="240" as="targetPoint" />
          </mxGeometry>
        </mxCell>
        <mxCell id="EI_LwdPaL2pC1cd1ccbz-33" value="opção ==&#39;s&#39;" style="strokeWidth=2;html=1;shape=mxgraph.flowchart.decision;whiteSpace=wrap;" parent="1" vertex="1">
          <mxGeometry x="522" y="210" width="100" height="60" as="geometry" />
        </mxCell>
        <mxCell id="EI_LwdPaL2pC1cd1ccbz-37" value="" style="edgeStyle=orthogonalEdgeStyle;rounded=0;orthogonalLoop=1;jettySize=auto;html=1;" parent="1" source="EI_LwdPaL2pC1cd1ccbz-34" target="EI_LwdPaL2pC1cd1ccbz-36" edge="1">
          <mxGeometry relative="1" as="geometry" />
        </mxCell>
        <mxCell id="EI_LwdPaL2pC1cd1ccbz-34" value="Deseja cadastrar outro participante" style="shape=display;whiteSpace=wrap;html=1;" parent="1" vertex="1">
          <mxGeometry x="494" y="840" width="136" height="70" as="geometry" />
        </mxCell>
        <mxCell id="EI_LwdPaL2pC1cd1ccbz-36" value="opção" style="html=1;strokeWidth=2;shape=manualInput;whiteSpace=wrap;rounded=1;size=26;arcSize=11;" parent="1" vertex="1">
          <mxGeometry x="512" y="930" width="100" height="60" as="geometry" />
        </mxCell>
        <mxCell id="EI_LwdPaL2pC1cd1ccbz-38" value="fim" style="strokeWidth=2;html=1;shape=mxgraph.flowchart.start_1;whiteSpace=wrap;" parent="1" vertex="1">
          <mxGeometry x="870" y="1000" width="100" height="60" as="geometry" />
        </mxCell>
        <mxCell id="EI_LwdPaL2pC1cd1ccbz-47" value="" style="edgeStyle=orthogonalEdgeStyle;rounded=0;orthogonalLoop=1;jettySize=auto;html=1;" parent="1" source="EI_LwdPaL2pC1cd1ccbz-44" target="EI_LwdPaL2pC1cd1ccbz-46" edge="1">
          <mxGeometry relative="1" as="geometry" />
        </mxCell>
        <mxCell id="EI_LwdPaL2pC1cd1ccbz-44" value="i = 1" style="rounded=1;whiteSpace=wrap;html=1;absoluteArcSize=1;arcSize=14;strokeWidth=2;" parent="1" vertex="1">
          <mxGeometry x="830" y="215" width="110" height="50" as="geometry" />
        </mxCell>
        <mxCell id="EI_LwdPaL2pC1cd1ccbz-51" value="" style="edgeStyle=orthogonalEdgeStyle;rounded=0;orthogonalLoop=1;jettySize=auto;html=1;" parent="1" source="EI_LwdPaL2pC1cd1ccbz-46" target="EI_LwdPaL2pC1cd1ccbz-50" edge="1">
          <mxGeometry relative="1" as="geometry" />
        </mxCell>
        <mxCell id="EI_LwdPaL2pC1cd1ccbz-55" style="edgeStyle=orthogonalEdgeStyle;rounded=0;orthogonalLoop=1;jettySize=auto;html=1;entryX=1;entryY=0.667;entryDx=0;entryDy=0;entryPerimeter=0;" parent="1" source="EI_LwdPaL2pC1cd1ccbz-46" target="EI_LwdPaL2pC1cd1ccbz-38" edge="1">
          <mxGeometry relative="1" as="geometry">
            <Array as="points">
              <mxPoint x="1030" y="330" />
              <mxPoint x="1030" y="1040" />
            </Array>
          </mxGeometry>
        </mxCell>
        <mxCell id="EI_LwdPaL2pC1cd1ccbz-46" value="i &amp;lt; lista.lenght" style="rhombus;whiteSpace=wrap;html=1;rounded=1;arcSize=14;strokeWidth=2;" parent="1" vertex="1">
          <mxGeometry x="812.5" y="290" width="145" height="80" as="geometry" />
        </mxCell>
        <mxCell id="EI_LwdPaL2pC1cd1ccbz-53" value="" style="edgeStyle=orthogonalEdgeStyle;rounded=0;orthogonalLoop=1;jettySize=auto;html=1;" parent="1" source="EI_LwdPaL2pC1cd1ccbz-50" target="EI_LwdPaL2pC1cd1ccbz-52" edge="1">
          <mxGeometry relative="1" as="geometry" />
        </mxCell>
        <mxCell id="EI_LwdPaL2pC1cd1ccbz-50" value="lista [ i ]" style="shape=display;whiteSpace=wrap;html=1;" parent="1" vertex="1">
          <mxGeometry x="817" y="410" width="136" height="70" as="geometry" />
        </mxCell>
        <mxCell id="EI_LwdPaL2pC1cd1ccbz-54" style="edgeStyle=orthogonalEdgeStyle;rounded=0;orthogonalLoop=1;jettySize=auto;html=1;entryX=0;entryY=0.5;entryDx=0;entryDy=0;" parent="1" source="EI_LwdPaL2pC1cd1ccbz-52" target="EI_LwdPaL2pC1cd1ccbz-46" edge="1">
          <mxGeometry relative="1" as="geometry">
            <Array as="points">
              <mxPoint x="793" y="545" />
              <mxPoint x="793" y="330" />
            </Array>
          </mxGeometry>
        </mxCell>
        <mxCell id="EI_LwdPaL2pC1cd1ccbz-52" value="i ++" style="rounded=1;whiteSpace=wrap;html=1;absoluteArcSize=1;arcSize=14;strokeWidth=2;" parent="1" vertex="1">
          <mxGeometry x="830" y="520" width="110" height="50" as="geometry" />
        </mxCell>
        <mxCell id="EI_LwdPaL2pC1cd1ccbz-56" value="S" style="text;html=1;resizable=0;autosize=1;align=center;verticalAlign=middle;points=[];fillColor=none;strokeColor=none;rounded=0;" parent="1" vertex="1">
          <mxGeometry x="890" y="370" width="30" height="30" as="geometry" />
        </mxCell>
        <mxCell id="EI_LwdPaL2pC1cd1ccbz-57" value="N" style="text;html=1;resizable=0;autosize=1;align=center;verticalAlign=middle;points=[];fillColor=none;strokeColor=none;rounded=0;" parent="1" vertex="1">
          <mxGeometry x="953" y="300" width="30" height="30" as="geometry" />
        </mxCell>
      </root>
    </mxGraphModel>
  </diagram>
</mxfile>
